<?xml version="1.0" encoding="UTF-8"?>
<svg width="128" height="128" viewBox="0 0 128 128" xmlns="http://www.w3.org/2000/svg" role="img" aria-labelledby="title desc">
  <title>Ocean Pro Logo</title>
  <desc>Simple ocean-blue wave mark inside a rounded square</desc>
  <defs>
    <linearGradient id="oceanGrad" x1="0" y1="0" x2="1" y2="1">
      <stop offset="0%" stop-color="#2563EB"/>
      <stop offset="100%" stop-color="#60A5FA"/>
    </linearGradient>
    <filter id="softShadow" x="-20%" y="-20%" width="140%" height="140%">
      <feDropShadow dx="0" dy="3" stdDeviation="4" flood-color="rgba(0,0,0,0.15)"/>
    </filter>
  </defs>
  <rect x="8" y="8" width="112" height="112" rx="24" fill="url(#oceanGrad)" filter="url(#softShadow)"/>
  <g transform="translate(16, 20)">
    <path d="M0,60 C18,60 24,44 40,44 C56,44 62,60 80,60 C98,60 104,44 120,44 L120,76 C102,76 96,92 80,92 C64,92 58,76 40,76 C22,76 16,92 0,92 Z"
          fill="rgba(255,255,255,0.3)"/>
    <path d="M0,36 C18,36 24,20 40,20 C56,20 62,36 80,36 C98,36 104,20 120,20 L120,52 C102,52 96,68 80,68 C64,68 58,52 40,52 C22,52 16,68 0,68 Z"
          fill="#FFFFFF"/>
  </g>
</svg>
